<svg width="31" height="28" viewBox="0 0 31 28" fill="none" xmlns="http://www.w3.org/2000/svg">
<path d="M15.6656 27.9978C25 27.9978 29.6645 21.7303 29.6645 13.9989C29.6645 6.26751 25 0 15.6656 0C6.33112 0 1.66669 6.26751 1.66669 13.9989C1.66669 21.7303 6.33112 27.9978 15.6656 27.9978Z" fill="url(#paint0_radial_13_2373)"/>
<path d="M15.6656 27.9978C25 27.9978 29.6645 21.7303 29.6645 13.9989C29.6645 6.26751 25 0 15.6656 0C6.33112 0 1.66669 6.26751 1.66669 13.9989C1.66669 21.7303 6.33112 27.9978 15.6656 27.9978Z" fill="url(#paint1_radial_13_2373)"/>
<path d="M15.6656 27.9978C25 27.9978 29.6645 21.7303 29.6645 13.9989C29.6645 6.26751 25 0 15.6656 0C6.33112 0 1.66669 6.26751 1.66669 13.9989C1.66669 21.7303 6.33112 27.9978 15.6656 27.9978Z" fill="url(#paint2_radial_13_2373)"/>
<path d="M15.6656 27.9978C25 27.9978 29.6645 21.7303 29.6645 13.9989C29.6645 6.26751 25 0 15.6656 0C6.33112 0 1.66669 6.26751 1.66669 13.9989C1.66669 21.7303 6.33112 27.9978 15.6656 27.9978Z" fill="url(#paint3_radial_13_2373)" fill-opacity="0.6"/>
<path d="M15.6656 27.9978C25 27.9978 29.6645 21.7303 29.6645 13.9989C29.6645 6.26751 25 0 15.6656 0C6.33112 0 1.66669 6.26751 1.66669 13.9989C1.66669 21.7303 6.33112 27.9978 15.6656 27.9978Z" fill="url(#paint4_radial_13_2373)"/>
<path d="M15.6656 27.9978C25 27.9978 29.6645 21.7303 29.6645 13.9989C29.6645 6.26751 25 0 15.6656 0C6.33112 0 1.66669 6.26751 1.66669 13.9989C1.66669 21.7303 6.33112 27.9978 15.6656 27.9978Z" fill="url(#paint5_radial_13_2373)"/>
<path d="M15.6656 27.9978C25 27.9978 29.6645 21.7303 29.6645 13.9989C29.6645 6.26751 25 0 15.6656 0C6.33112 0 1.66669 6.26751 1.66669 13.9989C1.66669 21.7303 6.33112 27.9978 15.6656 27.9978Z" fill="url(#paint6_radial_13_2373)"/>
<path d="M15.6656 27.9978C25 27.9978 29.6645 21.7303 29.6645 13.9989C29.6645 6.26751 25 0 15.6656 0C6.33112 0 1.66669 6.26751 1.66669 13.9989C1.66669 21.7303 6.33112 27.9978 15.6656 27.9978Z" fill="url(#paint7_radial_13_2373)"/>
<path opacity="0.5" d="M7.16669 21C10.7566 21 13.6667 18.0899 13.6667 14.5C13.6667 10.9101 10.7566 8 7.16669 8C3.57684 8 0.666687 10.9101 0.666687 14.5C0.666687 18.0899 3.57684 21 7.16669 21Z" fill="url(#paint8_radial_13_2373)"/>
<path opacity="0.5" d="M24.1667 21C27.7566 21 30.6667 18.0899 30.6667 14.5C30.6667 10.9101 27.7566 8 24.1667 8C20.5768 8 17.6667 10.9101 17.6667 14.5C17.6667 18.0899 20.5768 21 24.1667 21Z" fill="url(#paint9_radial_13_2373)"/>
<g opacity="0.5" filter="url(#filter0_f_13_2373)">
<path d="M7.16669 11.5C7.16669 11.5 7.41669 9.5 9.66669 9.5C11.9167 9.5 12.1667 11.5 12.1667 11.5" stroke="#9A4609" stroke-width="2" stroke-linecap="round"/>
</g>
<g opacity="0.5" filter="url(#filter1_f_13_2373)">
<path d="M18.1667 11.5C18.1667 11.5 18.6667 9.5 20.6667 9.5C22.6667 9.5 23.1667 11.5 23.1667 11.5" stroke="#9A4609" stroke-width="2" stroke-linecap="round"/>
</g>
<path d="M7.66669 11C7.66669 11 7.91669 9 10.1667 9C12.4167 9 12.6667 11 12.6667 11" stroke="#43273B" stroke-width="2" stroke-linecap="round" stroke-linejoin="round"/>
<g opacity="0.26" filter="url(#filter2_f_13_2373)">
<path d="M7.91669 10.75C7.91669 10.75 8.16669 8.75 10.4167 8.75C12.6667 8.75 12.9167 10.75 12.9167 10.75" stroke="white" stroke-width="0.75" stroke-linecap="round" stroke-linejoin="round"/>
</g>
<path d="M18.6667 11C18.6667 11 19.1667 9 21.1667 9C23.1667 9 23.6667 11 23.6667 11" stroke="#43273B" stroke-width="2" stroke-linecap="round" stroke-linejoin="round"/>
<g opacity="0.26" filter="url(#filter3_f_13_2373)">
<path d="M18.9167 10.75C18.9167 10.75 19.1667 8.75 21.4167 8.75C23.6667 8.75 23.9167 10.75 23.9167 10.75" stroke="white" stroke-width="0.75" stroke-linecap="round" stroke-linejoin="round"/>
</g>
<path d="M6.16669 7.5C6.50002 6.5 7.76669 4.5 10.1667 4.5" stroke="url(#paint10_linear_13_2373)" stroke-linecap="round" stroke-linejoin="round"/>
<path d="M25.1667 7.5C24.8334 6.5 23.5667 4.5 21.1667 4.5" stroke="url(#paint11_linear_13_2373)" stroke-linecap="round" stroke-linejoin="round"/>
<path d="M9.66669 17C10.1667 17.6667 12.1667 19.5 15.6667 19.5C19.1667 19.5 21.1667 17.6667 21.6667 17" stroke="url(#paint12_radial_13_2373)" stroke-width="2" stroke-linecap="round"/>
<defs>
<filter id="filter0_f_13_2373" x="4.66656" y="7" width="10.0002" height="7.00009" filterUnits="userSpaceOnUse" color-interpolation-filters="sRGB">
<feFlood flood-opacity="0" result="BackgroundImageFix"/>
<feBlend mode="normal" in="SourceGraphic" in2="BackgroundImageFix" result="shape"/>
<feGaussianBlur stdDeviation="0.75" result="effect1_foregroundBlur_13_2373"/>
</filter>
<filter id="filter1_f_13_2373" x="15.6664" y="7" width="10.0005" height="7.00024" filterUnits="userSpaceOnUse" color-interpolation-filters="sRGB">
<feFlood flood-opacity="0" result="BackgroundImageFix"/>
<feBlend mode="normal" in="SourceGraphic" in2="BackgroundImageFix" result="shape"/>
<feGaussianBlur stdDeviation="0.75" result="effect1_foregroundBlur_13_2373"/>
</filter>
<filter id="filter2_f_13_2373" x="6.04163" y="6.875" width="8.75012" height="5.75003" filterUnits="userSpaceOnUse" color-interpolation-filters="sRGB">
<feFlood flood-opacity="0" result="BackgroundImageFix"/>
<feBlend mode="normal" in="SourceGraphic" in2="BackgroundImageFix" result="shape"/>
<feGaussianBlur stdDeviation="0.75" result="effect1_foregroundBlur_13_2373"/>
</filter>
<filter id="filter3_f_13_2373" x="17.0416" y="6.875" width="8.75012" height="5.75003" filterUnits="userSpaceOnUse" color-interpolation-filters="sRGB">
<feFlood flood-opacity="0" result="BackgroundImageFix"/>
<feBlend mode="normal" in="SourceGraphic" in2="BackgroundImageFix" result="shape"/>
<feGaussianBlur stdDeviation="0.75" result="effect1_foregroundBlur_13_2373"/>
</filter>
<radialGradient id="paint0_radial_13_2373" cx="0" cy="0" r="1" gradientUnits="userSpaceOnUse" gradientTransform="translate(25.1667 7) rotate(132.839) scale(37.5033)">
<stop stop-color="#FFF478"/>
<stop offset="0.474827" stop-color="#FFB02E"/>
<stop offset="1" stop-color="#F70A8D"/>
</radialGradient>
<radialGradient id="paint1_radial_13_2373" cx="0" cy="0" r="1" gradientUnits="userSpaceOnUse" gradientTransform="translate(25.1667 7) rotate(131.878) scale(38.9487)">
<stop stop-color="#FFF478"/>
<stop offset="0.474827" stop-color="#FFB02E"/>
<stop offset="1" stop-color="#F70A8D"/>
</radialGradient>
<radialGradient id="paint2_radial_13_2373" cx="0" cy="0" r="1" gradientUnits="userSpaceOnUse" gradientTransform="translate(15.6667 10.5) rotate(101.31) scale(17.8466 22.8581)">
<stop offset="0.787821" stop-color="#F59639" stop-opacity="0"/>
<stop offset="0.972509" stop-color="#FF7DCE"/>
</radialGradient>
<radialGradient id="paint3_radial_13_2373" cx="0" cy="0" r="1" gradientUnits="userSpaceOnUse" gradientTransform="translate(17.6667 12) rotate(135) scale(41.0122)">
<stop offset="0.314853" stop-opacity="0"/>
<stop offset="1"/>
</radialGradient>
<radialGradient id="paint4_radial_13_2373" cx="0" cy="0" r="1" gradientUnits="userSpaceOnUse" gradientTransform="translate(15.6667 15) rotate(77.692) scale(28.1469)">
<stop offset="0.507903" stop-color="#7D6133" stop-opacity="0"/>
<stop offset="1" stop-color="#715B32"/>
</radialGradient>
<radialGradient id="paint5_radial_13_2373" cx="0" cy="0" r="1" gradientUnits="userSpaceOnUse" gradientTransform="translate(16.1667 14.5) rotate(55.7131) scale(13.3135 9.65032)">
<stop stop-color="#FFB849"/>
<stop offset="1" stop-color="#FFB847" stop-opacity="0"/>
</radialGradient>
<radialGradient id="paint6_radial_13_2373" cx="0" cy="0" r="1" gradientUnits="userSpaceOnUse" gradientTransform="translate(20.1667 16) rotate(9.86581) scale(11.6726)">
<stop stop-color="#FFA64B"/>
<stop offset="0.900412" stop-color="#FFAE46" stop-opacity="0"/>
</radialGradient>
<radialGradient id="paint7_radial_13_2373" cx="0" cy="0" r="1" gradientUnits="userSpaceOnUse" gradientTransform="translate(17.1667 13) rotate(43.9708) scale(59.0529)">
<stop offset="0.185425" stop-opacity="0"/>
<stop offset="1" stop-opacity="0.4"/>
</radialGradient>
<radialGradient id="paint8_radial_13_2373" cx="0" cy="0" r="1" gradientUnits="userSpaceOnUse" gradientTransform="translate(7.17182 14.5012) scale(6.49487)">
<stop stop-color="#F70A8D" stop-opacity="0.59"/>
<stop offset="1" stop-color="#FF6DC6" stop-opacity="0"/>
</radialGradient>
<radialGradient id="paint9_radial_13_2373" cx="0" cy="0" r="1" gradientUnits="userSpaceOnUse" gradientTransform="translate(24.1718 14.5012) scale(6.49487)">
<stop stop-color="#F70A8D" stop-opacity="0.59"/>
<stop offset="1" stop-color="#FF6DC6" stop-opacity="0"/>
</radialGradient>
<linearGradient id="paint10_linear_13_2373" x1="6.50002" y1="8.4" x2="6.50002" y2="6.6" gradientUnits="userSpaceOnUse">
<stop offset="0.0299084" stop-color="#524049"/>
<stop offset="1" stop-color="#4A2C42"/>
</linearGradient>
<linearGradient id="paint11_linear_13_2373" x1="24.8334" y1="8.4" x2="24.8334" y2="6.6" gradientUnits="userSpaceOnUse">
<stop offset="0.0299084" stop-color="#524049"/>
<stop offset="1" stop-color="#4A2C42"/>
</linearGradient>
<radialGradient id="paint12_radial_13_2373" cx="0" cy="0" r="1" gradientUnits="userSpaceOnUse" gradientTransform="translate(17.5404 14.9194) rotate(90) scale(11.4895)">
<stop offset="0.10265" stop-color="#482641"/>
<stop offset="0.298574" stop-color="#503A4A"/>
<stop offset="0.555606" stop-color="#483637"/>
</radialGradient>
</defs>
</svg>
