<svg width="105" height="278" viewBox="0 0 105 278" fill="none" xmlns="http://www.w3.org/2000/svg">
<path d="M35.8418 224.348L50.3437 224.348L50.3437 264.47L35.8418 264.47L35.8418 224.348ZM4.79687 258.186L83 258.186L83 277.038L4.79687 277.038L4.79687 258.186ZM4.79687 211.672L83 211.672L83 230.471L4.79687 230.471L4.79687 211.672ZM84.0742 172.409C84.0742 177.136 83.3402 181.361 81.8721 185.085C80.3682 188.809 78.3092 191.96 75.6953 194.538C73.0814 197.08 70.0736 199.032 66.6719 200.393C63.2702 201.717 59.6715 202.38 55.876 202.38L53.835 202.38C49.5739 202.38 45.6351 201.789 42.0186 200.607C38.3662 199.426 35.1794 197.671 32.458 195.344C29.7366 193.016 27.624 190.098 26.1201 186.589C24.5804 183.08 23.8105 178.998 23.8105 174.343C23.8105 170.225 24.473 166.537 25.7978 163.278C27.1227 160.02 29.0205 157.263 31.4912 155.007C33.9619 152.715 36.9518 150.979 40.4609 149.797C43.97 148.579 47.9088 147.971 52.2773 147.971L59.6357 147.971L59.6357 195.451L48.3027 195.451L48.3027 165.642L46.9062 165.642C44.9727 165.606 43.3255 165.946 41.9648 166.662C40.6042 167.342 39.5658 168.345 38.8496 169.67C38.1335 170.995 37.7754 172.606 37.7754 174.504C37.7754 176.473 38.2051 178.103 39.0644 179.392C39.9238 180.645 41.1055 181.63 42.6094 182.346C44.0775 183.026 45.7783 183.509 47.7119 183.796C49.6455 184.082 51.6865 184.226 53.835 184.226L55.876 184.226C58.0244 184.226 59.9759 183.939 61.7305 183.366C63.485 182.757 64.9889 181.898 66.2422 180.788C67.4596 179.642 68.4085 178.282 69.0889 176.706C69.7692 175.095 70.1094 173.269 70.1094 171.228C70.1094 168.757 69.6439 166.322 68.7129 163.923C67.7819 161.524 66.2422 159.465 64.0937 157.746L73.8691 149.528C75.5521 150.71 77.1813 152.393 78.7568 154.577C80.3324 156.726 81.6214 159.304 82.624 162.312C83.5908 165.319 84.0742 168.685 84.0742 172.409ZM0.499993 121.491L83 121.491L83 139.646L0.499994 139.646L0.499993 121.491ZM0.499992 91.1982L83 91.1982L83 109.353L0.499992 109.353L0.499992 91.1982ZM54.5332 82.2822L53.4053 82.2822C49.1442 82.2822 45.2233 81.6735 41.6426 80.4561C38.026 79.2386 34.8929 77.4482 32.2432 75.085C29.5934 72.7217 27.5345 69.8034 26.0664 66.3301C24.5625 62.8568 23.8105 58.8464 23.8105 54.2988C23.8105 49.7155 24.5625 45.6872 26.0664 42.2139C27.5345 38.7048 29.5934 35.7686 32.2432 33.4053C34.8929 31.042 38.026 29.2516 41.6426 28.0342C45.2233 26.8167 49.1442 26.208 53.4053 26.208L54.5332 26.208C58.7585 26.208 62.6794 26.8167 66.2959 28.0342C69.8766 29.2516 73.0098 31.042 75.6953 33.4053C78.345 35.7686 80.404 38.6868 81.8721 42.1602C83.3402 45.6335 84.0742 49.6439 84.0742 54.1914C84.0742 58.7389 83.3402 62.7672 81.8721 66.2764C80.404 69.7855 78.345 72.7217 75.6953 75.085C73.0098 77.4482 69.8766 79.2386 66.2959 80.4561C62.6794 81.6735 58.7585 82.2822 54.5332 82.2822ZM53.4053 64.1816L54.5332 64.1816C56.7174 64.1816 58.7585 64.0205 60.6562 63.6982C62.554 63.376 64.2191 62.8389 65.6514 62.0869C67.0478 61.335 68.14 60.3144 68.9277 59.0254C69.7155 57.7363 70.1094 56.125 70.1094 54.1914C70.1094 52.2936 69.7155 50.7181 68.9277 49.4648C68.14 48.1758 67.0478 47.1553 65.6514 46.4033C64.2191 45.6514 62.554 45.1143 60.6562 44.792C58.7585 44.4697 56.7174 44.3086 54.5332 44.3086L53.4053 44.3086C51.2926 44.3086 49.3053 44.4697 47.4433 44.792C45.5456 45.1143 43.8805 45.6514 42.4482 46.4033C40.9801 47.1553 39.8343 48.1758 39.0107 49.4648C38.1872 50.7539 37.7754 52.3652 37.7754 54.2988C37.7754 56.1966 38.1872 57.79 39.0107 59.0791C39.8343 60.3324 40.9801 61.335 42.4482 62.0869C43.8805 62.8389 45.5456 63.376 47.4433 63.6982C49.3053 64.0205 51.2926 64.1816 53.4053 64.1816ZM69.3574 0.641598L80.8516 0.749019C85.1842 0.749019 89.4632 1.82324 93.6885 3.97167C97.9137 6.0843 101.369 8.68033 104.055 11.7598L99.7578 20.9443C98.1107 20.1924 96.4456 19.3688 94.7627 18.4736C93.1155 17.5784 91.2536 16.8086 89.1767 16.1641C87.0999 15.5195 84.665 15.1973 81.8721 15.1973L69.3574 15.1973L69.3574 0.641598Z" fill="black"/>
</svg>
