<svg width="22" height="16" viewBox="0 0 22 16" fill="none" xmlns="http://www.w3.org/2000/svg">
<path d="M20.75 6.275C20.225 2.975 17.375 0.5 14.075 0.5H8C4.625 0.5 1.775 2.975 1.25 6.275C0.725 9.8 0.5 11.375 0.5 11.975C0.5 15.65 5.525 16.85 7.175 13.55L8.45 11H13.55L14.825 13.55C16.475 16.85 21.5 15.65 21.5 11.975C21.5 11.45 21.5 12.125 20.75 6.275ZM20 11.975C20 14.075 17.075 14.825 16.175 12.875L14.675 9.875C14.525 9.65 14.3 9.5 14 9.5H8C7.7 9.5 7.475 9.65 7.325 9.95L5.825 12.95C4.925 14.825 2 14.075 2 11.975L2.75 6.5C3.125 3.95 5.375 2 7.925 2H14C16.625 2 18.8 3.95 19.175 6.5C19.25 6.575 20.075 12.35 20 11.975Z" fill="#333333"/>
<path d="M9.5 5.75C9.5 6.2 9.2 6.5 8.75 6.5H8V7.25C8 7.7 7.7 8 7.25 8C6.8 8 6.5 7.7 6.5 7.25V6.5H5.75C5.3 6.5 5 6.2 5 5.75C5 5.3 5.3 5 5.75 5H6.5V4.25C6.5 3.8 6.8 3.5 7.25 3.5C7.7 3.5 8 3.8 8 4.25V5H8.75C9.2 5 9.5 5.3 9.5 5.75Z" fill="#333333"/>
<path d="M14 5.75C14 6.2 13.7 6.5 13.25 6.5C12.8 6.5 12.5 6.2 12.5 5.75C12.5 5.3 12.8 5 13.25 5C13.7 5 14 5.3 14 5.75Z" fill="#333333"/>
<path d="M15.5 7.25C15.5 7.7 15.2 8 14.75 8C14.3 8 14 7.7 14 7.25C14 6.8 14.3 6.5 14.75 6.5C15.2 6.5 15.5 6.8 15.5 7.25Z" fill="#333333"/>
<path d="M17 5.75C17 6.2 16.7 6.5 16.25 6.5C15.8 6.5 15.5 6.2 15.5 5.75C15.5 5.3 15.8 5 16.25 5C16.7 5 17 5.3 17 5.75Z" fill="#333333"/>
<path d="M14 4.25C14 3.8 14.3 3.5 14.75 3.5C15.2 3.5 15.5 3.8 15.5 4.25C15.5 4.7 15.2 5 14.75 5C14.3 5 14 4.7 14 4.25Z" fill="#333333"/>
</svg>
