<svg width="40" height="25" viewBox="0 0 40 25" fill="none" xmlns="http://www.w3.org/2000/svg">
<path d="M0 0H40L30 13L40 25H0V0Z" fill="#333333"/>
<path d="M14.3281 10.9844V12.4609C14.3281 13.1016 14.2598 13.6543 14.123 14.1191C13.9863 14.5801 13.7891 14.959 13.5312 15.2559C13.2773 15.5488 12.9746 15.7656 12.623 15.9062C12.2715 16.0469 11.8809 16.1172 11.4512 16.1172C11.1074 16.1172 10.7871 16.0742 10.4902 15.9883C10.1934 15.8984 9.92578 15.7598 9.6875 15.5723C9.45312 15.3848 9.25 15.1484 9.07812 14.8633C8.91016 14.5742 8.78125 14.2305 8.69141 13.832C8.60156 13.4336 8.55664 12.9766 8.55664 12.4609V10.9844C8.55664 10.3438 8.625 9.79492 8.76172 9.33789C8.90234 8.87695 9.09961 8.5 9.35352 8.20703C9.61133 7.91406 9.91602 7.69922 10.2676 7.5625C10.6191 7.42188 11.0098 7.35156 11.4395 7.35156C11.7832 7.35156 12.1016 7.39648 12.3945 7.48633C12.6914 7.57227 12.959 7.70703 13.1973 7.89062C13.4355 8.07422 13.6387 8.31055 13.8066 8.59961C13.9746 8.88477 14.1035 9.22656 14.1934 9.625C14.2832 10.0195 14.3281 10.4727 14.3281 10.9844ZM12.6348 12.6836V10.7559C12.6348 10.4473 12.6172 10.1777 12.582 9.94727C12.5508 9.7168 12.502 9.52148 12.4355 9.36133C12.3691 9.19727 12.2871 9.06445 12.1895 8.96289C12.0918 8.86133 11.9805 8.78711 11.8555 8.74023C11.7305 8.69336 11.5918 8.66992 11.4395 8.66992C11.248 8.66992 11.0781 8.70703 10.9297 8.78125C10.7852 8.85547 10.6621 8.97461 10.5605 9.13867C10.459 9.29883 10.3809 9.51367 10.3262 9.7832C10.2754 10.0488 10.25 10.373 10.25 10.7559V12.6836C10.25 12.9922 10.2656 13.2637 10.2969 13.498C10.332 13.7324 10.3828 13.9336 10.4492 14.1016C10.5195 14.2656 10.6016 14.4004 10.6953 14.5059C10.793 14.6074 10.9043 14.6816 11.0293 14.7285C11.1582 14.7754 11.2988 14.7988 11.4512 14.7988C11.6387 14.7988 11.8047 14.7617 11.9492 14.6875C12.0977 14.6094 12.2227 14.4883 12.3242 14.3242C12.4297 14.1562 12.5078 13.9375 12.5586 13.668C12.6094 13.3984 12.6348 13.0703 12.6348 12.6836ZM21.3125 14.6816V16H15.4766V14.875L18.2363 11.916C18.5137 11.6074 18.7324 11.3359 18.8926 11.1016C19.0527 10.8633 19.168 10.6504 19.2383 10.4629C19.3125 10.2715 19.3496 10.0898 19.3496 9.91797C19.3496 9.66016 19.3066 9.43945 19.2207 9.25586C19.1348 9.06836 19.0078 8.92383 18.8398 8.82227C18.6758 8.7207 18.4727 8.66992 18.2305 8.66992C17.9727 8.66992 17.75 8.73242 17.5625 8.85742C17.3789 8.98242 17.2383 9.15625 17.1406 9.37891C17.0469 9.60156 17 9.85352 17 10.1348H15.3066C15.3066 9.62695 15.4277 9.16211 15.6699 8.74023C15.9121 8.31445 16.2539 7.97656 16.6953 7.72656C17.1367 7.47266 17.6602 7.3457 18.2656 7.3457C18.8633 7.3457 19.3672 7.44336 19.7773 7.63867C20.1914 7.83008 20.5039 8.10742 20.7148 8.4707C20.9297 8.83008 21.0371 9.25977 21.0371 9.75977C21.0371 10.041 20.9922 10.3164 20.9023 10.5859C20.8125 10.8516 20.6836 11.1172 20.5156 11.3828C20.3516 11.6445 20.1523 11.9102 19.918 12.1797C19.6836 12.4492 19.4238 12.7285 19.1387 13.0176L17.6562 14.6816H21.3125Z" fill="#F8F8F8"/>
</svg>
