<svg width="40" height="25" viewBox="0 0 40 25" fill="none" xmlns="http://www.w3.org/2000/svg">
<path d="M0 0H40L30 13L40 25H0V0Z" fill="#333333"/>
<path d="M14.3281 10.9844V12.4609C14.3281 13.1016 14.2598 13.6543 14.123 14.1191C13.9863 14.5801 13.7891 14.959 13.5312 15.2559C13.2773 15.5488 12.9746 15.7656 12.623 15.9062C12.2715 16.0469 11.8809 16.1172 11.4512 16.1172C11.1074 16.1172 10.7871 16.0742 10.4902 15.9883C10.1934 15.8984 9.92578 15.7598 9.6875 15.5723C9.45312 15.3848 9.25 15.1484 9.07812 14.8633C8.91016 14.5742 8.78125 14.2305 8.69141 13.832C8.60156 13.4336 8.55664 12.9766 8.55664 12.4609V10.9844C8.55664 10.3438 8.625 9.79492 8.76172 9.33789C8.90234 8.87695 9.09961 8.5 9.35352 8.20703C9.61133 7.91406 9.91602 7.69922 10.2676 7.5625C10.6191 7.42188 11.0098 7.35156 11.4395 7.35156C11.7832 7.35156 12.1016 7.39648 12.3945 7.48633C12.6914 7.57227 12.959 7.70703 13.1973 7.89062C13.4355 8.07422 13.6387 8.31055 13.8066 8.59961C13.9746 8.88477 14.1035 9.22656 14.1934 9.625C14.2832 10.0195 14.3281 10.4727 14.3281 10.9844ZM12.6348 12.6836V10.7559C12.6348 10.4473 12.6172 10.1777 12.582 9.94727C12.5508 9.7168 12.502 9.52148 12.4355 9.36133C12.3691 9.19727 12.2871 9.06445 12.1895 8.96289C12.0918 8.86133 11.9805 8.78711 11.8555 8.74023C11.7305 8.69336 11.5918 8.66992 11.4395 8.66992C11.248 8.66992 11.0781 8.70703 10.9297 8.78125C10.7852 8.85547 10.6621 8.97461 10.5605 9.13867C10.459 9.29883 10.3809 9.51367 10.3262 9.7832C10.2754 10.0488 10.25 10.373 10.25 10.7559V12.6836C10.25 12.9922 10.2656 13.2637 10.2969 13.498C10.332 13.7324 10.3828 13.9336 10.4492 14.1016C10.5195 14.2656 10.6016 14.4004 10.6953 14.5059C10.793 14.6074 10.9043 14.6816 11.0293 14.7285C11.1582 14.7754 11.2988 14.7988 11.4512 14.7988C11.6387 14.7988 11.8047 14.7617 11.9492 14.6875C12.0977 14.6094 12.2227 14.4883 12.3242 14.3242C12.4297 14.1562 12.5078 13.9375 12.5586 13.668C12.6094 13.3984 12.6348 13.0703 12.6348 12.6836ZM17.2051 11.002H18.1074C18.3965 11.002 18.6348 10.9531 18.8223 10.8555C19.0098 10.7539 19.1484 10.6133 19.2383 10.4336C19.332 10.25 19.3789 10.0371 19.3789 9.79492C19.3789 9.57617 19.3359 9.38281 19.25 9.21484C19.168 9.04297 19.041 8.91016 18.8691 8.81641C18.6973 8.71875 18.4805 8.66992 18.2188 8.66992C18.0117 8.66992 17.8203 8.71094 17.6445 8.79297C17.4688 8.875 17.3281 8.99023 17.2227 9.13867C17.1172 9.28711 17.0645 9.4668 17.0645 9.67773H15.3711C15.3711 9.20898 15.4961 8.80078 15.7461 8.45312C16 8.10547 16.3398 7.83398 16.7656 7.63867C17.1914 7.44336 17.6602 7.3457 18.1719 7.3457C18.75 7.3457 19.2559 7.43945 19.6895 7.62695C20.123 7.81055 20.4609 8.08203 20.7031 8.44141C20.9453 8.80078 21.0664 9.24609 21.0664 9.77734C21.0664 10.0469 21.0039 10.3086 20.8789 10.5625C20.7539 10.8125 20.5742 11.0391 20.3398 11.2422C20.1094 11.4414 19.8281 11.6016 19.4961 11.7227C19.1641 11.8398 18.791 11.8984 18.377 11.8984H17.2051V11.002ZM17.2051 12.2852V11.4121H18.377C18.8418 11.4121 19.25 11.4648 19.6016 11.5703C19.9531 11.6758 20.248 11.8281 20.4863 12.0273C20.7246 12.2227 20.9043 12.4551 21.0254 12.7246C21.1465 12.9902 21.207 13.2852 21.207 13.6094C21.207 14.0078 21.1309 14.3633 20.9785 14.6758C20.8262 14.9844 20.6113 15.2461 20.334 15.4609C20.0605 15.6758 19.7402 15.8398 19.373 15.9531C19.0059 16.0625 18.6055 16.1172 18.1719 16.1172C17.8125 16.1172 17.459 16.0684 17.1113 15.9707C16.7676 15.8691 16.4551 15.7188 16.1738 15.5195C15.8965 15.3164 15.6738 15.0625 15.5059 14.7578C15.3418 14.4492 15.2598 14.084 15.2598 13.6621H16.9531C16.9531 13.8809 17.0078 14.0762 17.1172 14.248C17.2266 14.4199 17.377 14.5547 17.5684 14.6523C17.7637 14.75 17.9805 14.7988 18.2188 14.7988C18.4883 14.7988 18.7188 14.75 18.9102 14.6523C19.1055 14.5508 19.2539 14.4102 19.3555 14.2305C19.4609 14.0469 19.5137 13.834 19.5137 13.5918C19.5137 13.2793 19.457 13.0293 19.3438 12.8418C19.2305 12.6504 19.0684 12.5098 18.8574 12.4199C18.6465 12.3301 18.3965 12.2852 18.1074 12.2852H17.2051Z" fill="#F8F8F8"/>
</svg>
