<svg width="35" height="19" viewBox="0 0 35 19" fill="none" xmlns="http://www.w3.org/2000/svg">
<path d="M1.28333 12.5479L6.92708 18.25C7.06265 18.3867 7.22395 18.4952 7.40166 18.5692C7.57937 18.6433 7.76998 18.6814 7.9625 18.6814C8.15501 18.6814 8.34562 18.6433 8.52334 18.5692C8.70105 18.4952 8.86234 18.3867 8.99791 18.25C9.26953 17.9768 9.42199 17.6072 9.42199 17.2219C9.42199 16.8366 9.26953 16.467 8.99791 16.1938L3.80625 10.9584L33.5417 10.9584C33.9284 10.9584 34.2994 10.8047 34.5729 10.5312C34.8464 10.2577 35 9.8868 35 9.50002V9.50002C35 9.11325 34.8464 8.74232 34.5729 8.46883C34.2994 8.19534 33.9284 8.04169 33.5417 8.04169L3.71875 8.04169L8.99791 2.7771C9.1346 2.64153 9.24309 2.48024 9.31713 2.30253C9.39117 2.12482 9.42929 1.93421 9.42929 1.74169C9.42929 1.54917 9.39117 1.35856 9.31713 1.18085C9.2431 1.00314 9.1346 0.841842 8.99791 0.706272C8.86234 0.569584 8.70105 0.461094 8.52334 0.387056C8.34563 0.313018 8.15501 0.2749 7.9625 0.2749C7.76998 0.2749 7.57937 0.313018 7.40166 0.387056C7.22395 0.461093 7.06265 0.569583 6.92708 0.706272L1.28333 6.36461C0.464036 7.18492 0.00384612 8.29689 0.00384602 9.45627C0.00384592 10.6157 0.464036 11.7276 1.28333 12.5479Z" fill="#FDFCFA"/>
</svg>
