<svg width="66" height="90" viewBox="0 0 66 90" fill="none" xmlns="http://www.w3.org/2000/svg">
<path d="M22.589 12.9593C22.9323 13.3026 23.3821 13.4742 23.832 13.4742C24.2818 13.4742 24.7318 13.3026 25.0749 12.9593C25.7613 12.2729 25.7613 11.1598 25.0749 10.4732L21.0945 6.49284C20.4081 5.80659 19.295 5.80659 18.6084 6.49284C17.922 7.17926 17.922 8.29231 18.6084 8.97891L22.589 12.9593Z" fill="#52489C"/>
<path d="M40.4102 13.474C40.86 13.474 41.31 13.3024 41.6532 12.9591L45.6336 8.97873C46.32 8.2923 46.32 7.17926 45.6336 6.49265C44.9471 5.8064 43.8341 5.8064 43.1475 6.49265L39.1671 10.473C38.4807 11.1595 38.4807 12.2725 39.1671 12.9591C39.5104 13.3024 39.9604 13.474 40.4102 13.474Z" fill="#52489C"/>
<path d="M32.1211 9.14467C33.0919 9.14467 33.8789 8.35769 33.8789 7.38686V1.75781C33.8789 0.786973 33.0919 0 32.1211 0C31.1503 0 30.3633 0.786973 30.3633 1.75781V7.38686C30.3633 8.35769 31.1503 9.14467 32.1211 9.14467Z" fill="#52489C"/>
<path d="M63.3349 48.4105C62.6065 47.6822 61.7318 47.1538 60.7771 46.8529C61.4774 45.8182 61.8529 44.6004 61.851 43.3267C61.851 41.6406 61.1948 40.0558 60.0033 38.8642C59.1401 38.0011 58.0713 37.4187 56.9076 37.1629C57.1513 36.4853 57.2777 35.7637 57.2766 35.0233C57.2766 33.3372 56.6204 31.7524 55.429 30.5608C54.7318 29.8638 53.9007 29.3498 52.9937 29.0431L60.2582 21.7786C61.4521 20.5845 62.1083 18.9989 62.1059 17.3162C62.1059 15.6 61.4298 13.9955 60.202 12.7979C57.7417 10.3992 53.7257 10.4618 51.2496 12.9375L32.055 32.1321C31.9093 31.2335 31.7635 30.3349 31.6173 29.436C31.0703 26.0657 29.2685 23.0792 26.5421 21.0252C24.8812 19.777 22.6076 19.9383 21.1363 21.4096C20.452 22.0939 20.0317 23.0106 19.9526 23.9917L18.5956 40.9468C18.3346 44.203 16.9188 47.2683 14.6089 49.5782L13.2473 50.9398L12.8797 50.5722C12.1931 49.886 11.0802 49.886 10.3938 50.5722L1.33212 59.6338C1.00253 59.9635 0.817261 60.4105 0.817261 60.8767C0.817261 61.3429 1.00253 61.7901 1.33212 62.1197L9.42158 70.2091C10.108 70.8954 11.221 70.8954 11.9077 70.2091C12.5941 69.5227 12.5941 68.4096 11.9077 67.723L5.06115 60.8767L11.6371 54.3009L36.5165 79.1803L29.9407 85.7561L23.0944 78.9096C22.4079 78.2232 21.2949 78.2232 20.6083 78.9096C19.9219 79.596 19.9219 80.7091 20.6083 81.3957L28.6977 89.4851C29.041 89.8282 29.4909 90 29.9407 90C30.3905 90 30.8405 89.8282 31.1836 89.4851L40.2453 80.4234C40.9318 79.737 40.9318 78.6239 40.2453 77.9373L39.8892 77.5812C40.4229 77.0968 41.0019 76.6624 41.6205 76.2913L45.301 74.084C47.4292 72.8084 49.3988 71.2712 51.1552 69.515L63.3351 57.3351C64.529 56.1412 65.185 54.5556 65.1827 52.8727C65.1826 51.1868 64.5265 49.6021 63.3349 48.4105ZM60.849 54.8494L48.6691 67.0292C47.1165 68.5821 45.375 69.9412 43.4933 71.0692L39.8124 73.2767C38.9472 73.7956 38.1381 74.4054 37.3995 75.0916L15.7335 53.4255L17.0951 52.0639C19.995 49.1641 21.7725 45.3155 22.1003 41.2274L23.4574 24.2729C23.4697 24.1198 23.5254 23.9927 23.6226 23.8955C23.7543 23.7638 24.0926 23.5817 24.4286 23.8343C26.4256 25.339 27.7462 27.5284 28.1474 29.9997C28.4773 32.0293 28.8057 34.0572 29.134 36.0851C29.2395 36.7365 29.7009 37.274 30.329 37.4767C30.9569 37.6797 31.6456 37.5136 32.1123 37.0471L53.7355 15.4236C54.8579 14.3012 56.6577 14.2525 57.7475 15.3149C58.2909 15.8451 58.5902 16.5559 58.5902 17.3188C58.5913 18.0631 58.3007 18.7643 57.7723 19.2927C54.0712 22.9936 44.5326 32.5322 40.9606 36.1044C40.2742 36.7908 40.2742 37.9039 40.9606 38.5903C41.3039 38.9336 41.7537 39.1052 42.2035 39.1052C42.6534 39.1052 43.1034 38.9334 43.4465 38.5903L48.9899 33.0467C50.0796 31.9572 51.8532 31.9568 52.9429 33.0469C53.4704 33.5744 53.761 34.2763 53.761 35.0258C53.762 35.7702 53.4715 36.4712 52.9429 36.9998C51.7631 38.1795 48.6185 41.3242 47.3993 42.5433C46.7129 43.2297 46.7129 44.3427 47.3993 45.0293C47.7426 45.3726 48.1924 45.5442 48.6422 45.5442C49.0921 45.5442 49.5421 45.3726 49.8852 45.0293L53.5643 41.3502C54.0925 40.822 54.7944 40.5309 55.5408 40.5309C56.2871 40.5309 56.989 40.8218 57.5173 41.3502C58.0448 41.8778 58.3353 42.5796 58.3353 43.3292C58.3364 44.0736 58.0458 44.7746 57.5173 45.303C57.1082 45.7121 54.1637 48.6566 53.8382 48.9821C53.1517 49.6686 53.1517 50.7816 53.8382 51.4682C54.1815 51.8115 54.6313 51.9831 55.0811 51.9831C55.5309 51.9831 55.9809 51.8115 56.3241 51.4682L56.8957 50.8966C57.4239 50.3683 58.126 50.0772 58.8722 50.0772C59.6185 50.0772 60.3204 50.3682 60.8487 50.8966C61.3762 51.4239 61.6668 52.126 61.6668 52.8755C61.668 53.6198 61.3774 54.3208 60.849 54.8494Z" fill="#52489C"/>
<path d="M16.2579 76.3174C17.2287 76.3174 18.0157 75.5304 18.0157 74.5596C18.0157 73.5888 17.2287 72.8018 16.2579 72.8018C15.2871 72.8018 14.5001 73.5888 14.5001 74.5596C14.5001 75.5304 15.2871 76.3174 16.2579 76.3174Z" fill="#52489C"/>
</svg>
