<svg width="66" height="79" viewBox="0 0 66 79" fill="none" xmlns="http://www.w3.org/2000/svg">
<path d="M63.3349 37.4105C62.6065 36.6822 61.7318 36.1538 60.7771 35.8529C61.4774 34.8182 61.8529 33.6004 61.851 32.3267C61.851 30.6406 61.1948 29.0558 60.0033 27.8642C59.1401 27.0011 58.0713 26.4187 56.9076 26.1629C57.1513 25.4853 57.2777 24.7637 57.2766 24.0233C57.2766 22.3372 56.6204 20.7524 55.429 19.5608C54.7318 18.8638 53.9007 18.3498 52.9937 18.0431L60.2582 10.7786C61.4521 9.58449 62.1083 7.99894 62.1059 6.31619C62.1059 4.60004 61.4298 2.99551 60.202 1.79791C57.7417 -0.600803 53.7257 -0.538226 51.2496 1.93748L32.055 21.1321C31.9093 20.2335 31.7635 19.3349 31.6173 18.436C31.0703 15.0657 29.2685 12.0792 26.5421 10.0252C24.8812 8.77695 22.6076 8.93832 21.1363 10.4096C20.452 11.0939 20.0317 12.0106 19.9526 12.9917L18.5956 29.9468C18.3346 33.203 16.9188 36.2683 14.6089 38.5782L13.2473 39.9398L12.8797 39.5722C12.1931 38.886 11.0802 38.886 10.3938 39.5722L1.33212 48.6338C1.00253 48.9635 0.817261 49.4105 0.817261 49.8767C0.817261 50.3429 1.00253 50.7901 1.33212 51.1197L9.42158 59.2091C10.108 59.8954 11.221 59.8954 11.9077 59.2091C12.5941 58.5227 12.5941 57.4096 11.9077 56.723L5.06115 49.8767L11.6371 43.3009L36.5165 68.1803L29.9407 74.7561L23.0944 67.9096C22.4079 67.2232 21.2949 67.2232 20.6083 67.9096C19.9219 68.596 19.9219 69.7091 20.6083 70.3957L28.6977 78.4851C29.041 78.8282 29.4909 79 29.9407 79C30.3905 79 30.8405 78.8282 31.1836 78.4851L40.2453 69.4234C40.9318 68.737 40.9318 67.6239 40.2453 66.9373L39.8892 66.5812C40.4229 66.0968 41.0019 65.6624 41.6205 65.2913L45.301 63.084C47.4292 61.8084 49.3988 60.2712 51.1552 58.515L63.3351 46.3351C64.529 45.1412 65.185 43.5556 65.1827 41.8727C65.1826 40.1868 64.5265 38.6021 63.3349 37.4105ZM60.849 43.8494L48.6691 56.0292C47.1165 57.5821 45.375 58.9412 43.4933 60.0692L39.8124 62.2767C38.9472 62.7956 38.1381 63.4054 37.3995 64.0916L15.7335 42.4255L17.0951 41.0639C19.995 38.1641 21.7725 34.3155 22.1003 30.2274L23.4574 13.2729C23.4697 13.1198 23.5254 12.9927 23.6226 12.8955C23.7543 12.7638 24.0926 12.5817 24.4286 12.8343C26.4256 14.339 27.7462 16.5284 28.1474 18.9997C28.4773 21.0293 28.8057 23.0572 29.134 25.0851C29.2395 25.7365 29.7009 26.274 30.329 26.4767C30.9569 26.6797 31.6456 26.5136 32.1123 26.0471L53.7355 4.42355C54.8579 3.30119 56.6577 3.2525 57.7475 4.31492C58.2909 4.84508 58.5902 5.55594 58.5902 6.31883C58.5913 7.06308 58.3007 7.76427 57.7723 8.29267C54.0712 11.9936 44.5326 21.5322 40.9606 25.1044C40.2742 25.7908 40.2742 26.9039 40.9606 27.5903C41.3039 27.9336 41.7537 28.1052 42.2035 28.1052C42.6534 28.1052 43.1034 27.9334 43.4465 27.5903L48.9899 22.0467C50.0796 20.9572 51.8532 20.9568 52.9429 22.0469C53.4704 22.5744 53.761 23.2763 53.761 24.0258C53.762 24.7702 53.4715 25.4712 52.9429 25.9998C51.7631 27.1795 48.6185 30.3242 47.3993 31.5433C46.7129 32.2297 46.7129 33.3427 47.3993 34.0293C47.7426 34.3726 48.1924 34.5442 48.6422 34.5442C49.0921 34.5442 49.5421 34.3726 49.8852 34.0293L53.5643 30.3502C54.0925 29.822 54.7944 29.5309 55.5408 29.5309C56.2871 29.5309 56.989 29.8218 57.5173 30.3502C58.0448 30.8778 58.3353 31.5796 58.3353 32.3292C58.3364 33.0736 58.0458 33.7746 57.5173 34.303C57.1082 34.7121 54.1637 37.6566 53.8382 37.9821C53.1517 38.6686 53.1517 39.7816 53.8382 40.4682C54.1815 40.8115 54.6313 40.9831 55.0811 40.9831C55.5309 40.9831 55.9809 40.8115 56.3241 40.4682L56.8957 39.8966C57.4239 39.3683 58.126 39.0772 58.8722 39.0772C59.6185 39.0772 60.3204 39.3682 60.8487 39.8966C61.3762 40.4239 61.6668 41.126 61.6668 41.8755C61.668 42.6198 61.3774 43.3208 60.849 43.8494Z" fill="#52489C"/>
</svg>
