<svg width="20" height="20" viewBox="0 0 20 20" fill="none" xmlns="http://www.w3.org/2000/svg">
<path d="M17.0709 2.92906C15.1821 1.0402 12.6708 0 9.99959 0C7.32834 0 4.81709 1.0402 2.92826 2.92902C1.32291 4.53438 0.303771 6.65902 0.0584589 8.9116C-0.173455 11.0411 0.289357 13.2086 1.36311 15.046L0.320998 18.9352C0.264826 19.1447 0.324748 19.3684 0.478225 19.5218C0.631623 19.6752 0.855334 19.7351 1.06479 19.679L4.95393 18.6369C6.48143 19.5296 8.23725 20 10.0096 20C10.369 20 10.7292 19.9807 11.0883 19.9415C13.3409 19.6962 15.4656 18.6771 17.0709 17.0717C18.9598 15.1829 20 12.6716 20 10.0004C20 7.32922 18.9597 4.81789 17.0709 2.92906ZM16.2121 16.2128C13.3085 19.1164 8.84877 19.6323 5.36686 17.4677C5.26967 17.4073 5.15846 17.3761 5.04615 17.3761C4.99358 17.3761 4.94076 17.383 4.88901 17.3968L1.76647 18.2335L2.60319 15.111C2.64662 14.9488 2.62096 14.7758 2.53233 14.6332C0.3676 11.1511 0.883615 6.69141 3.78709 3.78789C7.21272 0.362344 12.7865 0.362344 16.2121 3.78789C19.6376 7.21344 19.6376 12.7873 16.2121 16.2128Z" fill="white"/>
</svg>
