<svg width="24" height="24" viewBox="0 0 24 24" fill="none" xmlns="http://www.w3.org/2000/svg">
<path d="M16.5538 15.5374C12.5598 13.6916 6.9695 14.508 6.73354 14.5436C6.20741 14.6231 5.84532 15.1139 5.92483 15.64C6.00434 16.1662 6.49553 16.5279 7.02127 16.4488C7.07342 16.4408 12.2706 15.6804 15.7455 17.2864C15.8763 17.3469 16.0138 17.3755 16.1491 17.3755C16.5131 17.3754 16.8615 17.1682 17.0242 16.8161C17.2473 16.3332 17.0368 15.7607 16.5538 15.5374Z" fill="#D9D1C7"/>
<path d="M17.6763 12.0682C13.1404 9.972 6.77964 10.9009 6.51106 10.9414C5.98519 11.0209 5.62335 11.5115 5.7026 12.0373C5.78173 12.5633 6.27266 12.9257 6.7984 12.8467C6.85851 12.8376 12.8619 11.9659 16.868 13.8172C16.999 13.8777 17.1363 13.9064 17.2716 13.9064C17.6356 13.9063 17.984 13.6991 18.1468 13.3469C18.37 12.8639 18.1593 12.2914 17.6763 12.0682Z" fill="#D9D1C7"/>
<path d="M18.4311 8.4437C13.4208 6.12816 6.3839 7.15562 6.0868 7.20045C5.56093 7.27996 5.19909 7.7705 5.27835 8.29637C5.3576 8.82224 5.84866 9.18511 6.37414 9.1056C6.44132 9.09545 13.1422 8.12206 17.6228 10.1927C17.7535 10.2532 17.8911 10.2818 18.0264 10.2818C18.3904 10.2818 18.7387 10.0745 18.9015 9.72241C19.1247 9.23931 18.9141 8.66694 18.4311 8.4437Z" fill="#D9D1C7"/>
<path d="M12.0001 0.000305176C5.38316 0.000305176 0 5.38333 0 11.9999C0 18.6168 5.38316 24 12.0001 24C18.6168 24 24 18.6168 24 11.9999C24 5.38333 18.6168 0.000305176 12.0001 0.000305176ZM12.0001 22.0733C6.44556 22.0733 1.92673 17.5545 1.92673 11.9999C1.92673 6.4456 6.44556 1.92691 12.0001 1.92691C17.5544 1.92691 22.0733 6.4456 22.0733 11.9999C22.0733 17.5545 17.5544 22.0733 12.0001 22.0733Z" fill="#D9D1C7"/>
</svg>
